<svg xmlns="http://www.w3.org/2000/svg" width="500" height="400" viewBox="0 0 132.292 105.833"><defs><mask id="a" maskUnits="userSpaceOnUse"><path d="M30.844 62.7c5.9.421 17.53 1.938 17.53 1.938l4.466 7.164 10.113.59 5.478-6.574 10.955 2.191 1.349 6.742L85.96 76.1l5.646-6.574 2.697.337" style="opacity:1;fill:none;fill-opacity:1;stroke:#fff;stroke-width:3.175;stroke-linecap:round;stroke-linejoin:round;stroke-dasharray:none;stroke-opacity:1"/></mask><mask id="b" maskUnits="userSpaceOnUse"><ellipse cx="58.494" cy="49.226" rx="10.283" ry="9.649" style="display:inline;opacity:1;fill:#fff;fill-opacity:1;stroke:none;stroke-width:1.0584;stroke-linecap:round;stroke-linejoin:round;stroke-dasharray:none;stroke-opacity:1" transform="skewY(.939)scale(.99987 1)"/></mask><mask id="c" maskUnits="userSpaceOnUse"><ellipse cx="82.332" cy="47.544" rx="4.343" ry="8.12" style="display:inline;opacity:1;fill:#fff;fill-opacity:1;stroke:none;stroke-width:.935818;stroke-linecap:round;stroke-linejoin:round;stroke-dasharray:none;stroke-opacity:1" transform="matrix(.99533 .09649 .08261 .99658 0 0)"/></mask></defs><g style="display:inline"><path d="M29.561 58.722c3.208 2.972 1.849 7.587-.893 12.037-3.018 4.898-8.172 13.6-15.97 9.654-7.987-4.042-3.093-14.68 1.906-18.831 5.261-4.37 11.305-6.246 14.957-2.86" style="display:inline;opacity:1;fill:#4693ff;fill-opacity:1;stroke:none;stroke-width:2.11667;stroke-linecap:round;stroke-linejoin:round;stroke-dasharray:none;stroke-opacity:1"/><path d="M23.066 69.15c2.403 6.043 4.589 7.747 8.283 8.104 3.695.358 8.283-3.754 9.952-6.018 1.668-2.265-.239-6.138-3.814-3.874-2.004 1.27-3.396 2.442-4.756 1.708-1.066-.576-1.921-3.41-2.633-4.509-2.086-3.217-8.784.183-7.032 4.589" style="opacity:1;fill:#1a1a1a;fill-opacity:1;stroke:none;stroke-width:2.11667;stroke-linecap:round;stroke-linejoin:round;stroke-dasharray:none;stroke-opacity:1"/><circle cx="12.815" cy="39.44" r="9.186" style="opacity:1;fill:#4693ff;fill-opacity:1;stroke-width:.911921;stroke-linecap:round;stroke-linejoin:round"/><path d="M90.761 53c2.724-2.185 15.471-10.667 19.188-12.692 5.41-2.946 10.46 6.731 4.291 9.237-3.879 1.575-18.442 7.555-21.333 8.283-2.975.748-4.55-2.898-2.146-4.827" style="opacity:1;fill:#1a1a1a;fill-opacity:1;stroke:none;stroke-width:2.11667;stroke-linecap:round;stroke-linejoin:round;stroke-dasharray:none;stroke-opacity:1"/><path d="M22.828 28.151c.09 4.17 8.82 14.839 8.82 14.839l16.565-21.155s-9.826-8.375-13.765-7.687c-3.707.647-11.706 10.067-11.62 14.003" style="opacity:1;fill:#4693ff;fill-opacity:1;stroke:none;stroke-width:2.11667;stroke-linecap:round;stroke-linejoin:round;stroke-dasharray:none;stroke-opacity:1"/><path d="M42.97 24.874s-1.226-11.996.595-16.447c1.883-4.602 20.142-6.57 22.824-2.92 2.32 3.16 4.886 17.34 4.886 17.34z" style="opacity:1;fill:#4693ff;fill-opacity:1;stroke:none;stroke-width:2.11667;stroke-linecap:round;stroke-linejoin:round;stroke-dasharray:none;stroke-opacity:1"/><path d="M70.917 7.354c3.764-2.642 18.861 5.707 18.95 9.475.097 4.081-4.588 17.52-4.588 17.52l-23.062-12.99s5.237-11.574 8.7-14.005" style="opacity:1;fill:#4693ff;fill-opacity:1;stroke:none;stroke-width:2.11667;stroke-linecap:round;stroke-linejoin:round;stroke-dasharray:none;stroke-opacity:1"/><path d="M81.823 29.88s9.66-4.2 11.858-3.516c2.816.875 9.118 11.024 7.807 13.765s-9.416 10.13-9.416 10.13z" style="opacity:1;fill:#4693ff;fill-opacity:1;stroke:none;stroke-width:2.11667;stroke-linecap:round;stroke-linejoin:round;stroke-dasharray:none;stroke-opacity:1"/><path d="M29.86 46.148c-.924 15.93 8.803 29.327 31.702 30.034 25.38.783 32.85-9.779 33.013-26.459.18-18.367-11.144-32.326-28.723-34.205C47.87 13.596 30.876 28.62 29.86 46.148" style="display:inline;opacity:1;fill:#4693ff;fill-opacity:1;stroke-width:1.05833;stroke-linecap:round;stroke-linejoin:round"/><path d="M86.936 26.513c4.062 5.513 6.961 13.144 7.618 21.356M38.738 15.935l6.138 2.98M67.64 9.202l1.788 6.912" style="opacity:1;fill:none;fill-opacity:.393058;stroke:#1a1a1a;stroke-width:2.11667;stroke-linecap:round;stroke-linejoin:round;stroke-dasharray:none;stroke-opacity:1"/><circle cx="117.483" cy="41.084" r="12.852" style="opacity:1;fill:#4693ff;fill-opacity:1;stroke-width:1.27585;stroke-linecap:round;stroke-linejoin:round"/><path d="M28.127 60.306c-.924 15.93 8.803 29.327 31.702 30.034 25.38.783 32.85-9.779 33.014-26.459.18-18.367-11.145-32.326-28.723-34.205-17.983-1.922-34.977 13.102-35.993 30.63" mask="url(#a)" style="display:inline;opacity:1;fill:#fff;fill-opacity:1;stroke-width:1.05833;stroke-linecap:round;stroke-linejoin:round" transform="translate(1.733 -14.158)"/><path d="M76.161 76.658c1.55 4.47 3.218 9.763 5.185 15.256 3.05 8.519 16.366 2.846 10.845-5.84-4.618-7.267-7.777-10.283-9.475-12.812-2.779-4.142-8.43-1.457-6.555 3.396" style="opacity:1;fill:#1a1a1a;fill-opacity:1;stroke:none;stroke-width:2.11667;stroke-linecap:round;stroke-linejoin:round;stroke-dasharray:none;stroke-opacity:1"/><path d="M81.108 98.23c3.781 6.233 14.005 5.41 22.763-1.55 8.766-6.965 13.99-19.345 4.887-25.98-7.177-5.233-15.47-4.164-21.453 6.435-5.32 9.424-10.522 13.968-6.197 21.095" style="display:inline;opacity:1;fill:#4693ff;fill-opacity:1;stroke:none;stroke-width:2.11667;stroke-linecap:round;stroke-linejoin:round;stroke-dasharray:none;stroke-opacity:1"/><path d="M15.343 44.328c2.574.801 10.047 2.912 14.958 5.942 2.964 1.828 6.152-1.475 3.076-4.172-4.335-3.8-12.13-8.616-16.096-9.06-4.898-.547-5.944 6.044-1.938 7.29" style="opacity:1;fill:#1a1a1a;fill-opacity:1;stroke:none;stroke-width:2.11667;stroke-linecap:round;stroke-linejoin:round;stroke-dasharray:none;stroke-opacity:1"/><path d="M75.715 41.53c-.026 2.208-.035 2.443.089 3.515.238 2.056 3.294 2.255 3.099-.03-.18-2.085-.35-2.519-.537-3.664-.302-1.85-2.63-1.61-2.651.179" style="opacity:1;fill:#fff;fill-opacity:1;stroke:none;stroke-width:3.175;stroke-linecap:round;stroke-linejoin:round;stroke-dasharray:none;stroke-opacity:1"/><ellipse cx="60.227" cy="35.04" rx="10.283" ry="9.649" style="display:inline;opacity:1;fill:#fff;fill-opacity:1;stroke:none;stroke-width:1.0584;stroke-linecap:round;stroke-linejoin:round;stroke-dasharray:none;stroke-opacity:1" transform="skewY(.939)scale(.99987 1)"/><circle cx="53.051" cy="47.826" r="9.481" mask="url(#b)" style="display:inline;opacity:1;fill:#1a1a1a;fill-opacity:1;stroke:none;stroke-width:2.66558;stroke-linecap:round;stroke-linejoin:round;stroke-dasharray:none;stroke-opacity:1" transform="translate(1.733 -14.158)"/><ellipse cx="85.275" cy="33.053" rx="4.343" ry="8.12" style="display:inline;opacity:1;fill:#fff;fill-opacity:1;stroke:none;stroke-width:.935818;stroke-linecap:round;stroke-linejoin:round;stroke-dasharray:none;stroke-opacity:1" transform="matrix(.99533 .09649 .08261 .99658 0 0)"/><circle cx="79.029" cy="52.967" r="9.481" mask="url(#c)" style="display:inline;fill:#1a1a1a;fill-opacity:1;stroke:none;stroke-width:2.66558;stroke-linecap:round;stroke-linejoin:round;stroke-dasharray:none;stroke-opacity:1" transform="translate(1.733 -14.158)"/></g></svg>