<svg xmlns="http://www.w3.org/2000/svg" width="250mm" height="250mm" viewBox="0 0 250 250"><g style="display:inline"><path d="M69.483 161.626c2.093 1.483 7.407 10.917 5.387 16.718-1.287 3.695-10.311 6.637-16.423 5.42-7.897-1.573-8.154-7.065-5.323-11.69 2.28-3.723 6.728-9.367 8.784-10.546 2.161-1.24 5.187-1.594 7.575.098" style="display:inline;opacity:1;fill:#ff6b25;fill-opacity:1;stroke:none;stroke-width:.1;stroke-linecap:round;stroke-linejoin:round;stroke-dasharray:none;stroke-opacity:1"/><path d="M95.4 135.343c3.085-1.44 13.37-.292 16.209 2.54 3.246 3.24-1.046 20.932-8.959 20.549-6.856-.333-11.584-10.433-11.636-14.73-.046-3.833 3.17-7.79 4.387-8.359" style="opacity:1;fill:#ff6b25;fill-opacity:1;stroke:none;stroke-width:.1;stroke-linecap:round;stroke-linejoin:round;stroke-dasharray:none;stroke-opacity:1"/><path d="M60.177 151.537c-.378 3.767-1.23 12.116.392 13.55 2.491 2.203 8.723.728 9.436-1.959.392-1.478-1.016-4.173-1.6-6.498-.519-2.067-.789-4.1-1.012-5.518-.606-3.851-6.782-3.897-7.216.425M81.042 137.072c2.226 2.73 8.926 7.878 11.656 8.163 2.73.284 6.097-5.592 4.016-8.13-2.053-2.506-9.13-5.094-11.591-6.008-3.555-1.321-6.226 3.345-4.081 5.975" style="opacity:1;fill:#000;fill-opacity:1;stroke:none;stroke-width:.1;stroke-linecap:round;stroke-linejoin:round;stroke-dasharray:none;stroke-opacity:1"/><circle cx="117.384" cy="98.244" r="9.166" style="opacity:1;fill:#ff6b25;fill-opacity:1;stroke:none;stroke-width:.1;stroke-linecap:round;stroke-linejoin:round;stroke-dasharray:none;stroke-opacity:1" transform="rotate(40.573)"/><path d="M42.946 140.54s-8.964 2.216-13.645 4.192c-4.877 2.058-2.044 10.839 3.901 7.997 4.742-2.266 11.787-7.349 11.787-7.349z" style="opacity:1;fill:#000;fill-opacity:1;stroke:none;stroke-width:.1;stroke-linecap:round;stroke-linejoin:round;stroke-dasharray:none;stroke-opacity:1"/><path d="M27.89 114.887s-6.188-5.576-6.695-8.265 6.3-12.915 8.45-13.253 8.312 2.124 8.312 2.124-.554-7.573-.046-9.004c.508-1.432 11.806-6.912 14.36-5.542s7.158 8.635 7.158 8.635l2.863.047s2.548-5.55 5.033-6.973c2.486-1.422 13.128 2.437 14.177 4.802s-.139 12.006-.139 12.006 9.947 7.9 8.866 21.426c-.968 12.118-21.149 31.262-34.217 30.8s-15.654-5.541-21.333-11.406c-4.664-1.985-11.292-3.31-13.068-4.617-1.777-1.308-2.835-12.723-1.293-14.13 1.541-1.407 7.157-3.418 7.157-3.418z" style="display:inline;opacity:1;fill:#ff6b25;fill-opacity:1;stroke:none;stroke-width:.1;stroke-linecap:round;stroke-linejoin:round;stroke-dasharray:none;stroke-opacity:1"/><path d="M89.405 85.863s-6.656 13.715-7.764 16.05c-1.706 3.594 2.444 6.174 4.898 3.471 2.498-2.752 11.782-13.169 11.782-13.169z" style="opacity:1;fill:#000;fill-opacity:1;stroke:none;stroke-width:.1;stroke-linecap:round;stroke-linejoin:round;stroke-dasharray:none;stroke-opacity:1"/><circle cx="115.332" cy="56.209" r="10.276" style="opacity:1;fill:#ff6b25;fill-opacity:1;stroke:none;stroke-width:.112112;stroke-linecap:round;stroke-linejoin:round;stroke-dasharray:none;stroke-opacity:1" transform="rotate(15.514)"/><circle cx="59.218" cy="114.073" r="2.6" style="opacity:1;fill:#000;fill-opacity:1;stroke:none;stroke-width:.100795;stroke-linecap:round;stroke-linejoin:round;stroke-dasharray:none;stroke-opacity:1"/><circle cx="39.562" cy="130.562" r="2.6" style="opacity:1;fill:#000;fill-opacity:1;stroke:none;stroke-width:.100795;stroke-linecap:round;stroke-linejoin:round;stroke-dasharray:none;stroke-opacity:1"/></g><path d="M115.492 29c4.258-5.615 5.414-11.904 2.341-15.306-4.65-5.147-10.827 2.987-4.082 6.077 4.446 2.036 14.426-.834 9.826-13.823" style="opacity:1;fill:none;fill-opacity:1;stroke:#ff6b25;stroke-width:3.3;stroke-linecap:round;stroke-linejoin:round;stroke-dasharray:none;stroke-opacity:1"/><path d="M36.578 50.209c-5.989 16.245 6.518 24.839 14.788 16.887 3.564-3.427 1.91-7.567-.714-8.433-2.234-.738-5.262 1.143-5.418 5.211-.282 7.404 7.32 11.169 7.32 11.169" style="opacity:1;fill:none;fill-opacity:1;stroke:#ffd138;stroke-width:3.29999;stroke-linecap:round;stroke-linejoin:round;stroke-dasharray:none;stroke-opacity:1"/><path d="M208.075 60.742c7.781.154 9.74-7.49 7.295-11.368-3.693-5.858-10.794-.566-6.533 4.434 3.172 3.722 14.5 2.139 15.548-11.877" style="opacity:1;fill:none;fill-opacity:1;stroke:#21c044;stroke-width:3.3;stroke-linecap:round;stroke-linejoin:round;stroke-dasharray:none;stroke-opacity:1"/><path d="M202.1 132.47c-.662 11.135 10.707 11.334 15.026 6.32 5.83-6.767-2.88-12.815-6.429-5.817-3.162 6.236 4.454 19.425 17.94 7.43" style="opacity:1;fill:none;fill-opacity:1;stroke:#fe88ff;stroke-width:3.3;stroke-linecap:round;stroke-linejoin:round;stroke-dasharray:none;stroke-opacity:1"/><path d="M77.552 202.48c8.36-1.883 11.904-9.378 8.557-14.277-4.732-6.929-11.498 2.45-4.287 6.216 4.449 2.325 13.21 1.352 13.875-8.541" style="opacity:1;fill:none;fill-opacity:1;stroke:#21c044;stroke-width:3.3;stroke-linecap:round;stroke-linejoin:round;stroke-dasharray:none;stroke-opacity:1"/><circle cx="87.537" cy="60.064" r="4.75" style="opacity:1;fill:#fe88ff;fill-opacity:1;stroke:none;stroke-width:3.93497;stroke-linecap:round;stroke-linejoin:round;stroke-dasharray:none;stroke-opacity:1" transform="rotate(-11.782)"/><circle cx="85.552" cy="41.438" r="3.117" style="opacity:1;fill:#21c044;fill-opacity:1;stroke:none;stroke-width:2.58251;stroke-linecap:round;stroke-linejoin:round;stroke-dasharray:none;stroke-opacity:1" transform="rotate(-11.782)"/><circle cx="47.514" cy="41.782" r="3.117" style="opacity:1;fill:#ff6b25;fill-opacity:1;stroke:none;stroke-width:2.58251;stroke-linecap:round;stroke-linejoin:round;stroke-dasharray:none;stroke-opacity:1" transform="rotate(-11.782)"/><circle cx="24.043" cy="71.278" r="2.726" style="opacity:1;fill:#fe88ff;fill-opacity:1;stroke:none;stroke-width:2.25792;stroke-linecap:round;stroke-linejoin:round;stroke-dasharray:none;stroke-opacity:1"/><circle cx="107.726" cy="64.303" r="3.656" style="opacity:1;fill:#4173ff;fill-opacity:1;stroke:none;stroke-width:3.02882;stroke-linecap:round;stroke-linejoin:round;stroke-dasharray:none;stroke-opacity:1"/><circle cx="58.299" cy="203.265" r="3.656" style="opacity:1;fill:#4173ff;fill-opacity:1;stroke:none;stroke-width:3.02882;stroke-linecap:round;stroke-linejoin:round;stroke-dasharray:none;stroke-opacity:1"/><circle cx="69.686" cy="226.083" r="2.733" style="opacity:1;fill:#ffd138;fill-opacity:1;stroke:none;stroke-width:2.26375;stroke-linecap:round;stroke-linejoin:round;stroke-dasharray:none;stroke-opacity:1"/><circle cx="98.44" cy="106.28" r="2.949" style="opacity:1;fill:#ffc738;fill-opacity:1;stroke:none;stroke-width:2.44309;stroke-linecap:round;stroke-linejoin:round;stroke-dasharray:none;stroke-opacity:1"/><circle cx="139.352" cy="121.426" r="2.949" style="opacity:1;fill:#4173ff;fill-opacity:1;stroke:none;stroke-width:2.44309;stroke-linecap:round;stroke-linejoin:round;stroke-dasharray:none;stroke-opacity:1"/><circle cx="222.165" cy="73.205" r="3.85" style="opacity:1;fill:#ff6b25;fill-opacity:1;stroke:none;stroke-width:3.18903;stroke-linecap:round;stroke-linejoin:round;stroke-dasharray:none;stroke-opacity:1"/><circle cx="225.292" cy="161.13" r="2.949" style="opacity:1;fill:#4173ff;fill-opacity:1;stroke:none;stroke-width:2.44309;stroke-linecap:round;stroke-linejoin:round;stroke-dasharray:none;stroke-opacity:1"/><circle cx="238.169" cy="134.136" r="2.733" style="opacity:1;fill:#ffd138;fill-opacity:1;stroke:none;stroke-width:2.26375;stroke-linecap:round;stroke-linejoin:round;stroke-dasharray:none;stroke-opacity:1"/><circle cx="144.701" cy="235.35" r="4.75" style="opacity:1;fill:#fe88ff;fill-opacity:1;stroke:none;stroke-width:3.93497;stroke-linecap:round;stroke-linejoin:round;stroke-dasharray:none;stroke-opacity:1"/><path d="M159.447 112.255c-3.105 2.495-6.695 7.989-6.418 13.16.268 5.01 4.895 10.02 11.406 9.974 6.51-.046 10.03-3.005 10.39-7.942.369-5.08-1.645-11.86-3.556-14.084-2.54-2.955-8.525-3.757-11.822-1.108" style="fill:#ffd138;fill-opacity:1;stroke-width:.1;stroke-linecap:round;stroke-linejoin:round;stroke:none;stroke-opacity:1;stroke-dasharray:none"/><path d="M161.895 102.235c.437 3.602-.81 5.804-1.57 8.542-1.376 4.955 7.47 8.7 9.835 1.986 2.248-6.379-.047-11.599-2.031-14.13-1.661-2.118-6.782-.91-6.234 3.602" style="fill:#000;fill-opacity:1;stroke:none;stroke-width:.1;stroke-linecap:round;stroke-linejoin:round;stroke-dasharray:none;stroke-opacity:1"/><path d="M186.045 95.17c1.543 7.972 6.165 10.069 12.583 9.053s13.645-6.467 14.754-12.193-4.92-9.256-9.051-9.974c-9.328-1.623-19.685 5.885-18.286 13.114" style="display:inline;fill:#ffd138;fill-opacity:1;stroke:none;stroke-width:.1;stroke-linecap:round;stroke-linejoin:round;stroke-dasharray:none;stroke-opacity:1"/><path d="M179.488 84.18c2.447 3.278 5.56 8.18 7.111 9.604 3.823 3.513 10.946-2.479 6.511-7.48-2.757-3.11-10.066-7.065-10.066-7.065zM186.572 44.276l-3.657 11.558 5.355 5.094 7.118-14.04z" style="fill:#000;fill-opacity:1;stroke:none;stroke-width:.1;stroke-linecap:round;stroke-linejoin:round;stroke-dasharray:none;stroke-opacity:1"/><path d="M133.807 88.617c6.875 13.224 17.52 15.556 26.905 14.236 11.926-1.677 26.971-13.717 30.562-23.313 3.766-10.067 1.296-20.566-9.012-29.779 0 0 1.045-8.75-.196-10.905s-10.71-5.943-12.081-4.833c-1.372 1.11-5.029 5.094-5.029 5.094l-2.612-.392s-3.2-7.053-4.506-8.032-15.477 1.698-16.39 3.657c-.915 1.959-.262 8.032-.262 8.032s-5.224-2.482-6.27-2.482c-1.044 0-11.035 7.902-10.709 11.102s5.486 10.58 5.486 10.58l-.85 5.485s-5.877 1.632-6.726 3.134-1.306 12.996.784 14.563 10.906 3.853 10.906 3.853" style="opacity:1;fill:#ffd138;fill-opacity:1;stroke:none;stroke-width:.1;stroke-linecap:round;stroke-linejoin:round;stroke-dasharray:none;stroke-opacity:1"/><path d="M123.183 96.217s13.95-4.366 15.727-4.873c3.54-1.011 5.265 3.013 2.824 4.902-2.062 1.596-14.76 10.187-14.76 10.187z" style="fill:#000;fill-opacity:1;stroke:none;stroke-width:.1;stroke-linecap:round;stroke-linejoin:round;stroke-dasharray:none;stroke-opacity:1"/><circle cx="178.047" cy="59.461" r="2.6" style="fill:#000;fill-opacity:1;stroke:none;stroke-width:.100795;stroke-linecap:round;stroke-linejoin:round;stroke-dasharray:none;stroke-opacity:1"/><circle cx="160.741" cy="72.555" r="2.6" style="fill:#000;fill-opacity:1;stroke:none;stroke-width:.100795;stroke-linecap:round;stroke-linejoin:round;stroke-dasharray:none;stroke-opacity:1"/><circle cx="153.619" cy="39.709" r="10.182" style="fill:#ffd138;fill-opacity:1;stroke:none;stroke-width:.111083;stroke-linecap:round;stroke-linejoin:round;stroke-dasharray:none;stroke-opacity:1" transform="rotate(26.054)"/><circle cx="196.861" cy="-13.603" r="9.166" style="fill:#ffd138;fill-opacity:1;stroke:none;stroke-width:.1;stroke-linecap:round;stroke-linejoin:round;stroke-dasharray:none;stroke-opacity:1" transform="rotate(15.514)"/><g transform="translate(-4.702 -4.44)"><path d="M138.287 197.406c3.948 4.685-.506 8.81-3.493 13.118s-6.631 11.733-14.748 7.334c-4.88-2.645-5.772-10.31 1.698-17.87 8.24-8.336 14.181-5.283 16.543-2.582" style="fill:#4173ff;fill-opacity:1;stroke:none;stroke-width:.1;stroke-linecap:round;stroke-linejoin:round;stroke-dasharray:none;stroke-opacity:1"/><path d="M138.133 200.594c3.54 2.17 4.047 3.104 4.891 3.079s5.13-2.446 7.744-2.48c2.005-.025 3.436 1.52 2.695 3.507-1.337 3.585-6.457 6.716-10.292 6.633-3.473-.074-6.873-2.307-8.87-4.102-3.693-3.318.293-8.808 3.832-6.637" style="fill:#000;fill-opacity:1;stroke:none;stroke-width:.1;stroke-linecap:round;stroke-linejoin:round;stroke-dasharray:none;stroke-opacity:1"/><circle cx="217.336" cy="198.562" r="8.768" style="fill:#4173ff;fill-opacity:1;stroke:none;stroke-width:.0972913;stroke-linecap:round;stroke-linejoin:round;stroke-dasharray:none;stroke-opacity:1"/><path d="M197.706 193.919s9.025-.02 12.122.264c4.017.37 3.904 8.916-1.281 8.347-5.094-.56-13.224-2.114-13.224-2.114zM174.621 213.02l1.698 16.717 9.6-7.705-5.094-10.71z" style="fill:#000;fill-opacity:1;stroke:none;stroke-width:.1;stroke-linecap:round;stroke-linejoin:round;stroke-dasharray:none;stroke-opacity:1"/><path d="M173.854 236.992c1.797 6.9 10.568 7.636 17.224 3.219 7.654-5.078 11.566-13.384 5.956-18.977-6.485-6.466-14.27-.208-17.71 3.796-3.635 4.228-6.64 7.468-5.47 11.962" style="fill:#4173ff;fill-opacity:1;stroke:none;stroke-width:.10146;stroke-linecap:round;stroke-linejoin:round;stroke-dasharray:none;stroke-opacity:1"/><path d="M143.101 177.872c-1.524 5.864-3.299 16.796 3.925 24.658 7.575 8.245 23.476 12.456 33.293 11.36 12.944-1.446 19.157-11.152 21.092-23.165 2.078-.785 8.919-3.99 9.846-5.788.928-1.798-1.89-13.189-3.786-14.326s-9.466-.22-9.466-.22l-.508-1.2s2.84-6.51 3.137-9.166c.296-2.656-9.62-10.286-12.062-9.147s-7.699 5.29-7.699 5.29-1.631-5.2-2.851-7.191-14.793-1.397-15.565.426c-.772 1.824-3.148 8.89-3.148 8.89l-3.925 2.17s-4.319-2.91-6.256-3.028c-1.938-.12-9.902 5.901-10.164 8.746s4.137 11.69 4.137 11.69" style="display:inline;fill:#4173ff;fill-opacity:1;stroke:none;stroke-width:.1;stroke-linecap:round;stroke-linejoin:round;stroke-dasharray:none;stroke-opacity:1"/><path d="M132.34 172.82s10.386 7.068 12.19 8.174c3.11 1.905 1.278 6.97-2.355 5.772-3.426-1.13-14.176-4.48-14.176-4.48z" style="fill:#000;fill-opacity:1;stroke:none;stroke-width:.1;stroke-linecap:round;stroke-linejoin:round;stroke-dasharray:none;stroke-opacity:1"/><circle cx="123.962" cy="174.637" r="9.547" style="fill:#4173ff;fill-opacity:1;stroke:none;stroke-width:.105939;stroke-linecap:round;stroke-linejoin:round;stroke-dasharray:none;stroke-opacity:1"/><circle cx="192.097" cy="193.471" r="2.6" style="fill:#000;fill-opacity:1;stroke:none;stroke-width:.100795;stroke-linecap:round;stroke-linejoin:round;stroke-dasharray:none;stroke-opacity:1"/><circle cx="169.435" cy="187.632" r="2.6" style="fill:#000;fill-opacity:1;stroke:none;stroke-width:.100795;stroke-linecap:round;stroke-linejoin:round;stroke-dasharray:none;stroke-opacity:1"/></g></svg>
